<svg width="32" height="32" viewBox="0 0 32 32" fill="none" xmlns="http://www.w3.org/2000/svg">
<mask id="path-1-outside-1_215_831" maskUnits="userSpaceOnUse" x="1.46936" y="0.183594" width="28" height="32" fill="black">
<rect fill="white" x="1.46936" y="0.183594" width="28" height="32"/>
<path d="M6.98642 31.3508C5.95546 31.3508 5.00808 30.9328 4.1443 30.0969C3.30838 29.261 2.89042 27.9374 2.89042 26.1263C2.89042 24.3151 3.05761 22.5736 3.39197 20.9018C3.7542 19.2021 4.15823 17.5721 4.60405 16.0117C5.07774 14.4513 5.48177 12.9745 5.81614 11.5813C6.17837 10.1602 6.35948 8.82278 6.35948 7.5689C5.94152 7.40172 5.55143 7.31812 5.1892 7.31812C4.68765 7.31812 4.26969 7.47138 3.93532 7.77788C3.60095 8.08438 3.33624 8.50234 3.1412 9.03176L2.72324 8.90637C2.7511 6.95589 3.02974 5.40944 3.55916 4.26702C4.11644 3.09674 4.82697 2.26082 5.69075 1.75927C6.55453 1.25771 7.44618 1.00694 8.36569 1.00694C9.75888 1.00694 10.9988 1.46669 12.0855 2.38621C13.2001 3.27785 14.1893 4.50387 15.053 6.06425C15.9447 7.62463 16.7109 9.39399 17.3518 11.3723C18.0205 13.3228 18.5918 15.3708 19.0654 17.5163C19.5391 19.634 19.9153 21.7238 20.1939 23.7857C20.3611 22.6712 20.5283 21.3058 20.6955 19.6897C20.8905 18.0736 21.0577 16.3739 21.197 14.5906C21.3364 12.8073 21.406 11.1076 21.406 9.49151C21.406 8.32122 21.3642 7.2624 21.2806 6.31502C21.197 5.33978 21.0577 4.50386 20.8627 3.80727V3.4729C21.5871 2.66484 22.3116 2.05184 23.0361 1.63388C23.7884 1.21592 24.485 1.00694 25.1259 1.00694C26.0732 1.00694 26.8534 1.4249 27.4664 2.26082C28.1073 3.06887 28.4277 4.22523 28.4277 5.72988C28.4277 6.84444 28.2745 8.20977 27.968 9.82588C27.6615 11.4141 27.2992 13.1138 26.8813 14.925C26.4633 16.7361 26.0872 18.5194 25.7528 20.2749C25.4463 22.0024 25.2791 23.5628 25.2512 24.956C25.2512 25.3461 25.2791 25.7641 25.3348 26.2099C25.3906 26.6557 25.6831 26.8786 26.2125 26.8786C26.2404 26.9901 26.2543 27.0737 26.2543 27.1294C26.2543 27.1851 26.2543 27.2408 26.2543 27.2966C26.2265 28.3554 25.7946 29.3028 24.9587 30.1387C24.1227 30.9468 23.0082 31.3508 21.615 31.3508C20.5283 31.3508 19.6088 31.0721 18.8565 30.5149C18.1041 29.9576 17.4772 29.2192 16.9756 28.2997C16.4741 27.3523 16.0422 26.2935 15.68 25.1232C15.3456 23.925 15.0252 22.699 14.7187 21.4451C14.1614 19.2718 13.5762 17.2098 12.9632 15.2593C12.3781 13.281 11.584 11.4699 10.5809 9.82588C10.6366 10.9404 10.5948 12.1665 10.4555 13.5039C10.3162 14.8135 10.1629 16.151 9.99573 17.5163C9.85641 18.8538 9.78675 20.1495 9.78675 21.4033C9.78675 22.5179 9.88427 23.5489 10.0793 24.4962C10.2744 25.4158 10.6227 26.2377 11.1242 26.9622C11.1242 28.3275 10.6923 29.4003 9.82854 30.1805C8.96476 30.9607 8.01739 31.3508 6.98642 31.3508Z"/>
</mask>
<path d="M6.98642 31.3508C5.95546 31.3508 5.00808 30.9328 4.1443 30.0969C3.30838 29.261 2.89042 27.9374 2.89042 26.1263C2.89042 24.3151 3.05761 22.5736 3.39197 20.9018C3.7542 19.2021 4.15823 17.5721 4.60405 16.0117C5.07774 14.4513 5.48177 12.9745 5.81614 11.5813C6.17837 10.1602 6.35948 8.82278 6.35948 7.5689C5.94152 7.40172 5.55143 7.31812 5.1892 7.31812C4.68765 7.31812 4.26969 7.47138 3.93532 7.77788C3.60095 8.08438 3.33624 8.50234 3.1412 9.03176L2.72324 8.90637C2.7511 6.95589 3.02974 5.40944 3.55916 4.26702C4.11644 3.09674 4.82697 2.26082 5.69075 1.75927C6.55453 1.25771 7.44618 1.00694 8.36569 1.00694C9.75888 1.00694 10.9988 1.46669 12.0855 2.38621C13.2001 3.27785 14.1893 4.50387 15.053 6.06425C15.9447 7.62463 16.7109 9.39399 17.3518 11.3723C18.0205 13.3228 18.5918 15.3708 19.0654 17.5163C19.5391 19.634 19.9153 21.7238 20.1939 23.7857C20.3611 22.6712 20.5283 21.3058 20.6955 19.6897C20.8905 18.0736 21.0577 16.3739 21.197 14.5906C21.3364 12.8073 21.406 11.1076 21.406 9.49151C21.406 8.32122 21.3642 7.2624 21.2806 6.31502C21.197 5.33978 21.0577 4.50386 20.8627 3.80727V3.4729C21.5871 2.66484 22.3116 2.05184 23.0361 1.63388C23.7884 1.21592 24.485 1.00694 25.1259 1.00694C26.0732 1.00694 26.8534 1.4249 27.4664 2.26082C28.1073 3.06887 28.4277 4.22523 28.4277 5.72988C28.4277 6.84444 28.2745 8.20977 27.968 9.82588C27.6615 11.4141 27.2992 13.1138 26.8813 14.925C26.4633 16.7361 26.0872 18.5194 25.7528 20.2749C25.4463 22.0024 25.2791 23.5628 25.2512 24.956C25.2512 25.3461 25.2791 25.7641 25.3348 26.2099C25.3906 26.6557 25.6831 26.8786 26.2125 26.8786C26.2404 26.9901 26.2543 27.0737 26.2543 27.1294C26.2543 27.1851 26.2543 27.2408 26.2543 27.2966C26.2265 28.3554 25.7946 29.3028 24.9587 30.1387C24.1227 30.9468 23.0082 31.3508 21.615 31.3508C20.5283 31.3508 19.6088 31.0721 18.8565 30.5149C18.1041 29.9576 17.4772 29.2192 16.9756 28.2997C16.4741 27.3523 16.0422 26.2935 15.68 25.1232C15.3456 23.925 15.0252 22.699 14.7187 21.4451C14.1614 19.2718 13.5762 17.2098 12.9632 15.2593C12.3781 13.281 11.584 11.4699 10.5809 9.82588C10.6366 10.9404 10.5948 12.1665 10.4555 13.5039C10.3162 14.8135 10.1629 16.151 9.99573 17.5163C9.85641 18.8538 9.78675 20.1495 9.78675 21.4033C9.78675 22.5179 9.88427 23.5489 10.0793 24.4962C10.2744 25.4158 10.6227 26.2377 11.1242 26.9622C11.1242 28.3275 10.6923 29.4003 9.82854 30.1805C8.96476 30.9607 8.01739 31.3508 6.98642 31.3508Z" fill="#E6F5FF"/>
<path d="M4.1443 30.0969L3.7907 30.4505L3.79659 30.4562L4.1443 30.0969ZM3.39197 20.9018L2.90292 20.7976L2.90168 20.8037L3.39197 20.9018ZM4.60405 16.0117L4.12555 15.8664L4.12329 15.8743L4.60405 16.0117ZM5.81614 11.5813L5.33158 11.4578L5.32994 11.4646L5.81614 11.5813ZM6.35948 7.5689H6.85948V7.23038L6.54518 7.10466L6.35948 7.5689ZM3.93532 7.77788L4.27318 8.14646L4.27318 8.14646L3.93532 7.77788ZM3.1412 9.03176L2.99752 9.51067L3.44784 9.64577L3.61037 9.20461L3.1412 9.03176ZM2.72324 8.90637L2.22329 8.89923L2.2179 9.27678L2.57956 9.38528L2.72324 8.90637ZM3.55916 4.26702L3.1077 4.05204L3.1055 4.05679L3.55916 4.26702ZM5.69075 1.75927L5.94182 2.19166V2.19166L5.69075 1.75927ZM12.0855 2.38621L11.7624 2.76804L11.7732 2.77664L12.0855 2.38621ZM15.053 6.06425L14.6155 6.30643L14.6189 6.31232L15.053 6.06425ZM17.3518 11.3723L16.8761 11.5264L16.8788 11.5345L17.3518 11.3723ZM19.0654 17.5163L18.5772 17.6241L18.5775 17.6255L19.0654 17.5163ZM20.1939 23.7857L19.6984 23.8527L20.6884 23.8599L20.1939 23.7857ZM20.6955 19.6897L20.199 19.6298L20.1981 19.6383L20.6955 19.6897ZM21.197 14.5906L21.6955 14.6296V14.6296L21.197 14.5906ZM21.2806 6.31502L20.7825 6.35772L20.7826 6.35897L21.2806 6.31502ZM20.8627 3.80727H20.3627V3.87595L20.3812 3.94208L20.8627 3.80727ZM20.8627 3.4729L20.4904 3.13913L20.3627 3.28158V3.4729H20.8627ZM23.0361 1.63388L22.7932 1.19674L22.7862 1.20079L23.0361 1.63388ZM27.4664 2.26082L27.0632 2.5565L27.0688 2.56412L27.0747 2.57151L27.4664 2.26082ZM27.968 9.82588L28.4589 9.92062L28.4592 9.91905L27.968 9.82588ZM26.8813 14.925L26.3941 14.8126V14.8126L26.8813 14.925ZM25.7528 20.2749L25.2616 20.1813L25.2605 20.1875L25.7528 20.2749ZM25.2512 24.956L24.7512 24.946V24.956H25.2512ZM25.3348 26.2099L25.831 26.1479H25.831L25.3348 26.2099ZM26.2125 26.8786L26.6976 26.7573L26.6029 26.3786H26.2125V26.8786ZM26.2543 27.2966L26.7543 27.3097V27.2966H26.2543ZM24.9587 30.1387L25.3062 30.4982L25.3122 30.4922L24.9587 30.1387ZM18.8565 30.5149L18.5588 30.9166V30.9166L18.8565 30.5149ZM16.9756 28.2997L16.5337 28.5336L16.5367 28.5391L16.9756 28.2997ZM15.68 25.1232L15.1982 25.2576L15.2023 25.271L15.68 25.1232ZM14.7187 21.4451L15.2044 21.3264L15.203 21.321L14.7187 21.4451ZM12.9632 15.2593L12.4837 15.4012L12.4862 15.4093L12.9632 15.2593ZM10.5809 9.82588L11.0077 9.56545L10.0815 9.85085L10.5809 9.82588ZM10.4555 13.5039L10.9527 13.5568L10.9528 13.5557L10.4555 13.5039ZM9.99573 17.5163L9.49935 17.4555L9.49842 17.4645L9.99573 17.5163ZM10.0793 24.4962L9.58958 24.5971L9.5902 24.6L10.0793 24.4962ZM11.1242 26.9622H11.6242V26.806L11.5353 26.6776L11.1242 26.9622ZM9.82854 30.1805L9.4934 29.8094V29.8094L9.82854 30.1805ZM6.98642 31.3508V30.8508C6.10666 30.8508 5.27916 30.4994 4.49201 29.7376L4.1443 30.0969L3.79659 30.4562C4.737 31.3663 5.80426 31.8508 6.98642 31.8508V31.3508ZM4.1443 30.0969L4.49785 29.7433C3.79531 29.0408 3.39042 27.874 3.39042 26.1263H2.89042H2.39042C2.39042 28.0009 2.82146 29.4812 3.79075 30.4505L4.1443 30.0969ZM2.89042 26.1263H3.39042C3.39042 24.346 3.55474 22.6375 3.88226 20.9999L3.39197 20.9018L2.90168 20.8037C2.56047 22.5098 2.39042 24.2842 2.39042 26.1263H2.89042ZM3.39197 20.9018L3.88099 21.006C4.24101 19.3167 4.64233 17.6977 5.08482 16.149L4.60405 16.0117L4.12329 15.8743C3.67413 17.4464 3.26739 19.0875 2.90295 20.7976L3.39197 20.9018ZM4.60405 16.0117L5.08249 16.1569C5.55866 14.5884 5.96537 13.102 6.30233 11.698L5.81614 11.5813L5.32994 11.4646C4.99817 12.847 4.59682 14.3142 4.12561 15.8664L4.60405 16.0117ZM5.81614 11.5813L6.30064 11.7048C6.67147 10.25 6.85948 8.87076 6.85948 7.5689H6.35948H5.85948C5.85948 8.7748 5.68526 10.0705 5.33163 11.4578L5.81614 11.5813ZM6.35948 7.5689L6.54518 7.10466C6.08201 6.91939 5.62842 6.81812 5.1892 6.81812V7.31812V7.81812C5.47444 7.81812 5.80104 7.88404 6.17379 8.03314L6.35948 7.5689ZM5.1892 7.31812V6.81812C4.57687 6.81812 4.03408 7.00907 3.59746 7.4093L3.93532 7.77788L4.27318 8.14646C4.5053 7.93369 4.79842 7.81812 5.1892 7.81812V7.31812ZM3.93532 7.77788L3.59746 7.4093C3.19175 7.7812 2.88803 8.2726 2.67203 8.8589L3.1412 9.03176L3.61037 9.20461C3.78446 8.73209 4.01015 8.38756 4.27318 8.14646L3.93532 7.77788ZM3.1412 9.03176L3.28487 8.55284L2.86691 8.42745L2.72324 8.90637L2.57956 9.38528L2.99752 9.51067L3.1412 9.03176ZM2.72324 8.90637L3.22319 8.91351C3.25054 6.99863 3.52464 5.53068 4.01281 4.47725L3.55916 4.26702L3.1055 4.05679C2.53485 5.2882 2.25166 6.91316 2.22329 8.89923L2.72324 8.90637ZM3.55916 4.26702L4.01059 4.48199C4.53732 3.37584 5.18783 2.62946 5.94182 2.19166L5.69075 1.75927L5.43968 1.32687C4.4661 1.89217 3.69555 2.81763 3.10773 4.05205L3.55916 4.26702ZM5.69075 1.75927L5.94182 2.19166C6.73612 1.73045 7.54189 1.50694 8.36569 1.50694V1.00694V0.506939C7.35046 0.506939 6.37294 0.784977 5.43968 1.32687L5.69075 1.75927ZM8.36569 1.00694V1.50694C9.63784 1.50694 10.764 1.92296 11.7626 2.7679L12.0855 2.38621L12.4085 2.00451C11.2337 1.01043 9.87993 0.506939 8.36569 0.506939V1.00694ZM12.0855 2.38621L11.7732 2.77664C12.8258 3.61871 13.7758 4.78938 14.6156 6.3064L15.053 6.06425L15.4905 5.82209C14.6027 4.21835 13.5744 2.937 12.3979 1.99577L12.0855 2.38621ZM15.053 6.06425L14.6189 6.31232C15.4911 7.83866 16.2442 9.57578 16.8761 11.5264L17.3518 11.3723L17.8275 11.2182C17.1776 9.2122 16.3983 7.41059 15.4872 5.81618L15.053 6.06425ZM17.3518 11.3723L16.8788 11.5345C17.5411 13.466 18.1073 15.4958 18.5772 17.6241L19.0654 17.5163L19.5537 17.4085C19.0762 15.2458 18.5 13.1796 17.8248 11.2102L17.3518 11.3723ZM19.0654 17.5163L18.5775 17.6255C19.0482 19.7298 19.4218 21.8055 19.6984 23.8527L20.1939 23.7857L20.6894 23.7188C20.4088 21.6421 20.0301 19.5382 19.5534 17.4072L19.0654 17.5163ZM20.1939 23.7857L20.6884 23.8599C20.8571 22.7353 21.0252 21.3619 21.1928 19.7412L20.6955 19.6897L20.1981 19.6383C20.0314 21.2498 19.8651 22.607 19.6995 23.7115L20.1939 23.7857ZM20.6955 19.6897L21.1919 19.7496C21.3878 18.1259 21.5557 16.4192 21.6955 14.6296L21.197 14.5906L20.6986 14.5517C20.5597 16.3286 20.3932 18.0213 20.1991 19.6298L20.6955 19.6897ZM21.197 14.5906L21.6955 14.6296C21.8357 12.8347 21.906 11.1219 21.906 9.49151H21.406H20.906C20.906 11.0933 20.837 12.78 20.6986 14.5517L21.197 14.5906ZM21.406 9.49151H21.906C21.906 8.30975 21.8638 7.23593 21.7787 6.27107L21.2806 6.31502L20.7826 6.35897C20.8646 7.28886 20.906 8.3327 20.906 9.49151H21.406ZM21.2806 6.31502L21.7788 6.27232C21.6934 5.27604 21.55 4.40758 21.3441 3.67245L20.8627 3.80727L20.3812 3.94208C20.5654 4.60015 20.7007 5.40352 20.7825 6.35772L21.2806 6.31502ZM20.8627 3.80727H21.3627V3.4729H20.8627H20.3627V3.80727H20.8627ZM20.8627 3.4729L21.235 3.80667C21.934 3.02693 22.6186 2.45198 23.2859 2.06697L23.0361 1.63388L22.7862 1.20079C22.0046 1.65169 21.2402 2.30276 20.4904 3.13913L20.8627 3.4729ZM23.0361 1.63388L23.2789 2.07096C23.9814 1.68066 24.5941 1.50694 25.1259 1.50694V1.00694V0.506939C24.3758 0.506939 23.5954 0.751177 22.7932 1.1968L23.0361 1.63388ZM25.1259 1.00694V1.50694C25.8973 1.50694 26.5341 1.83498 27.0632 2.5565L27.4664 2.26082L27.8696 1.96514C27.1727 1.01482 26.2491 0.506939 25.1259 0.506939V1.00694ZM27.4664 2.26082L27.0747 2.57151C27.6196 3.25863 27.9277 4.28796 27.9277 5.72988H28.4277H28.9277C28.9277 4.16249 28.595 2.87911 27.8582 1.95012L27.4664 2.26082ZM28.4277 5.72988H27.9277C27.9277 6.80224 27.7799 8.13429 27.4767 9.73271L27.968 9.82588L28.4592 9.91905C28.7691 8.28525 28.9277 6.88663 28.9277 5.72988H28.4277ZM27.968 9.82588L27.477 9.73114C27.1718 11.3127 26.8109 13.0064 26.3941 14.8126L26.8813 14.925L27.3685 15.0374C27.7876 13.2212 28.1511 11.5156 28.4589 9.92062L27.968 9.82588ZM26.8813 14.925L26.3941 14.8126C25.9747 16.6297 25.5972 18.4193 25.2616 20.1813L25.7528 20.2749L26.244 20.3684C26.5771 18.6195 26.9519 16.8426 27.3685 15.0374L26.8813 14.925ZM25.7528 20.2749L25.2605 20.1875C24.9505 21.9344 24.7798 23.5212 24.7513 24.946L25.2512 24.956L25.7511 24.966C25.7784 23.6044 25.942 22.0704 26.2451 20.3622L25.7528 20.2749ZM25.2512 24.956H24.7512C24.7512 25.3697 24.7808 25.8085 24.8387 26.2719L25.3348 26.2099L25.831 26.1479C25.7774 25.7196 25.7512 25.3225 25.7512 24.956H25.2512ZM25.3348 26.2099L24.8387 26.2719C24.8793 26.5966 25.017 26.8988 25.293 27.1091C25.5573 27.3105 25.8849 27.3786 26.2125 27.3786V26.8786V26.3786C26.0108 26.3786 25.9274 26.3353 25.8991 26.3137C25.8825 26.3011 25.8461 26.269 25.831 26.1479L25.3348 26.2099ZM26.2125 26.8786L25.7275 26.9999C25.7392 27.0469 25.7465 27.0821 25.7507 27.1071C25.7552 27.1342 25.7543 27.1393 25.7543 27.1294H26.2543H26.7543C26.7543 27.0091 26.7272 26.8759 26.6976 26.7573L26.2125 26.8786ZM26.2543 27.1294H25.7543C25.7543 27.1295 25.7543 27.1296 25.7543 27.1297C25.7543 27.1298 25.7543 27.1299 25.7543 27.13C25.7543 27.1301 25.7543 27.1303 25.7543 27.1304C25.7543 27.1305 25.7543 27.1306 25.7543 27.1307C25.7543 27.1308 25.7543 27.1309 25.7543 27.131C25.7543 27.1311 25.7543 27.1312 25.7543 27.1313C25.7543 27.1315 25.7543 27.1316 25.7543 27.1317C25.7543 27.1318 25.7543 27.1319 25.7543 27.132C25.7543 27.1321 25.7543 27.1322 25.7543 27.1323C25.7543 27.1324 25.7543 27.1325 25.7543 27.1327C25.7543 27.1328 25.7543 27.1329 25.7543 27.133C25.7543 27.1331 25.7543 27.1332 25.7543 27.1333C25.7543 27.1334 25.7543 27.1335 25.7543 27.1336C25.7543 27.1337 25.7543 27.1339 25.7543 27.134C25.7543 27.1341 25.7543 27.1342 25.7543 27.1343C25.7543 27.1344 25.7543 27.1345 25.7543 27.1346C25.7543 27.1347 25.7543 27.1348 25.7543 27.1349C25.7543 27.135 25.7543 27.1352 25.7543 27.1353C25.7543 27.1354 25.7543 27.1355 25.7543 27.1356C25.7543 27.1357 25.7543 27.1358 25.7543 27.1359C25.7543 27.136 25.7543 27.1361 25.7543 27.1362C25.7543 27.1364 25.7543 27.1365 25.7543 27.1366C25.7543 27.1367 25.7543 27.1368 25.7543 27.1369C25.7543 27.137 25.7543 27.1371 25.7543 27.1372C25.7543 27.1373 25.7543 27.1374 25.7543 27.1376C25.7543 27.1377 25.7543 27.1378 25.7543 27.1379C25.7543 27.138 25.7543 27.1381 25.7543 27.1382C25.7543 27.1383 25.7543 27.1384 25.7543 27.1385C25.7543 27.1386 25.7543 27.1387 25.7543 27.1389C25.7543 27.139 25.7543 27.1391 25.7543 27.1392C25.7543 27.1393 25.7543 27.1394 25.7543 27.1395C25.7543 27.1396 25.7543 27.1397 25.7543 27.1398C25.7543 27.1399 25.7543 27.1401 25.7543 27.1402C25.7543 27.1403 25.7543 27.1404 25.7543 27.1405C25.7543 27.1406 25.7543 27.1407 25.7543 27.1408C25.7543 27.1409 25.7543 27.141 25.7543 27.1411C25.7543 27.1413 25.7543 27.1414 25.7543 27.1415C25.7543 27.1416 25.7543 27.1417 25.7543 27.1418C25.7543 27.1419 25.7543 27.142 25.7543 27.1421C25.7543 27.1422 25.7543 27.1423 25.7543 27.1425C25.7543 27.1426 25.7543 27.1427 25.7543 27.1428C25.7543 27.1429 25.7543 27.143 25.7543 27.1431C25.7543 27.1432 25.7543 27.1433 25.7543 27.1434C25.7543 27.1435 25.7543 27.1436 25.7543 27.1438C25.7543 27.1439 25.7543 27.144 25.7543 27.1441C25.7543 27.1442 25.7543 27.1443 25.7543 27.1444C25.7543 27.1445 25.7543 27.1446 25.7543 27.1447C25.7543 27.1448 25.7543 27.145 25.7543 27.1451C25.7543 27.1452 25.7543 27.1453 25.7543 27.1454C25.7543 27.1455 25.7543 27.1456 25.7543 27.1457C25.7543 27.1458 25.7543 27.1459 25.7543 27.146C25.7543 27.1462 25.7543 27.1463 25.7543 27.1464C25.7543 27.1465 25.7543 27.1466 25.7543 27.1467C25.7543 27.1468 25.7543 27.1469 25.7543 27.147C25.7543 27.1471 25.7543 27.1472 25.7543 27.1474C25.7543 27.1475 25.7543 27.1476 25.7543 27.1477C25.7543 27.1478 25.7543 27.1479 25.7543 27.148C25.7543 27.1481 25.7543 27.1482 25.7543 27.1483C25.7543 27.1484 25.7543 27.1485 25.7543 27.1487C25.7543 27.1488 25.7543 27.1489 25.7543 27.149C25.7543 27.1491 25.7543 27.1492 25.7543 27.1493C25.7543 27.1494 25.7543 27.1495 25.7543 27.1496C25.7543 27.1497 25.7543 27.1499 25.7543 27.15C25.7543 27.1501 25.7543 27.1502 25.7543 27.1503C25.7543 27.1504 25.7543 27.1505 25.7543 27.1506C25.7543 27.1507 25.7543 27.1508 25.7543 27.1509C25.7543 27.1511 25.7543 27.1512 25.7543 27.1513C25.7543 27.1514 25.7543 27.1515 25.7543 27.1516C25.7543 27.1517 25.7543 27.1518 25.7543 27.1519C25.7543 27.152 25.7543 27.1521 25.7543 27.1522C25.7543 27.1524 25.7543 27.1525 25.7543 27.1526C25.7543 27.1527 25.7543 27.1528 25.7543 27.1529C25.7543 27.153 25.7543 27.1531 25.7543 27.1532C25.7543 27.1533 25.7543 27.1534 25.7543 27.1536C25.7543 27.1537 25.7543 27.1538 25.7543 27.1539C25.7543 27.154 25.7543 27.1541 25.7543 27.1542C25.7543 27.1543 25.7543 27.1544 25.7543 27.1545C25.7543 27.1546 25.7543 27.1548 25.7543 27.1549C25.7543 27.155 25.7543 27.1551 25.7543 27.1552C25.7543 27.1553 25.7543 27.1554 25.7543 27.1555C25.7543 27.1556 25.7543 27.1557 25.7543 27.1558C25.7543 27.1559 25.7543 27.1561 25.7543 27.1562C25.7543 27.1563 25.7543 27.1564 25.7543 27.1565C25.7543 27.1566 25.7543 27.1567 25.7543 27.1568C25.7543 27.1569 25.7543 27.157 25.7543 27.1571C25.7543 27.1573 25.7543 27.1574 25.7543 27.1575C25.7543 27.1576 25.7543 27.1577 25.7543 27.1578C25.7543 27.1579 25.7543 27.158 25.7543 27.1581C25.7543 27.1582 25.7543 27.1583 25.7543 27.1585C25.7543 27.1586 25.7543 27.1587 25.7543 27.1588C25.7543 27.1589 25.7543 27.159 25.7543 27.1591C25.7543 27.1592 25.7543 27.1593 25.7543 27.1594C25.7543 27.1595 25.7543 27.1596 25.7543 27.1598C25.7543 27.1599 25.7543 27.16 25.7543 27.1601C25.7543 27.1602 25.7543 27.1603 25.7543 27.1604C25.7543 27.1605 25.7543 27.1606 25.7543 27.1607C25.7543 27.1608 25.7543 27.161 25.7543 27.1611C25.7543 27.1612 25.7543 27.1613 25.7543 27.1614C25.7543 27.1615 25.7543 27.1616 25.7543 27.1617C25.7543 27.1618 25.7543 27.1619 25.7543 27.162C25.7543 27.1622 25.7543 27.1623 25.7543 27.1624C25.7543 27.1625 25.7543 27.1626 25.7543 27.1627C25.7543 27.1628 25.7543 27.1629 25.7543 27.163C25.7543 27.1631 25.7543 27.1632 25.7543 27.1633C25.7543 27.1635 25.7543 27.1636 25.7543 27.1637C25.7543 27.1638 25.7543 27.1639 25.7543 27.164C25.7543 27.1641 25.7543 27.1642 25.7543 27.1643C25.7543 27.1644 25.7543 27.1645 25.7543 27.1647C25.7543 27.1648 25.7543 27.1649 25.7543 27.165C25.7543 27.1651 25.7543 27.1652 25.7543 27.1653C25.7543 27.1654 25.7543 27.1655 25.7543 27.1656C25.7543 27.1657 25.7543 27.1659 25.7543 27.166C25.7543 27.1661 25.7543 27.1662 25.7543 27.1663C25.7543 27.1664 25.7543 27.1665 25.7543 27.1666C25.7543 27.1667 25.7543 27.1668 25.7543 27.1669C25.7543 27.167 25.7543 27.1672 25.7543 27.1673C25.7543 27.1674 25.7543 27.1675 25.7543 27.1676C25.7543 27.1677 25.7543 27.1678 25.7543 27.1679C25.7543 27.168 25.7543 27.1681 25.7543 27.1682C25.7543 27.1684 25.7543 27.1685 25.7543 27.1686C25.7543 27.1687 25.7543 27.1688 25.7543 27.1689C25.7543 27.169 25.7543 27.1691 25.7543 27.1692C25.7543 27.1693 25.7543 27.1694 25.7543 27.1696C25.7543 27.1697 25.7543 27.1698 25.7543 27.1699C25.7543 27.17 25.7543 27.1701 25.7543 27.1702C25.7543 27.1703 25.7543 27.1704 25.7543 27.1705C25.7543 27.1706 25.7543 27.1707 25.7543 27.1709C25.7543 27.171 25.7543 27.1711 25.7543 27.1712C25.7543 27.1713 25.7543 27.1714 25.7543 27.1715C25.7543 27.1716 25.7543 27.1717 25.7543 27.1718C25.7543 27.1719 25.7543 27.1721 25.7543 27.1722C25.7543 27.1723 25.7543 27.1724 25.7543 27.1725C25.7543 27.1726 25.7543 27.1727 25.7543 27.1728C25.7543 27.1729 25.7543 27.173 25.7543 27.1731C25.7543 27.1733 25.7543 27.1734 25.7543 27.1735C25.7543 27.1736 25.7543 27.1737 25.7543 27.1738C25.7543 27.1739 25.7543 27.174 25.7543 27.1741C25.7543 27.1742 25.7543 27.1743 25.7543 27.1744C25.7543 27.1746 25.7543 27.1747 25.7543 27.1748C25.7543 27.1749 25.7543 27.175 25.7543 27.1751C25.7543 27.1752 25.7543 27.1753 25.7543 27.1754C25.7543 27.1755 25.7543 27.1756 25.7543 27.1758C25.7543 27.1759 25.7543 27.176 25.7543 27.1761C25.7543 27.1762 25.7543 27.1763 25.7543 27.1764C25.7543 27.1765 25.7543 27.1766 25.7543 27.1767C25.7543 27.1768 25.7543 27.177 25.7543 27.1771C25.7543 27.1772 25.7543 27.1773 25.7543 27.1774C25.7543 27.1775 25.7543 27.1776 25.7543 27.1777C25.7543 27.1778 25.7543 27.1779 25.7543 27.178C25.7543 27.1782 25.7543 27.1783 25.7543 27.1784C25.7543 27.1785 25.7543 27.1786 25.7543 27.1787C25.7543 27.1788 25.7543 27.1789 25.7543 27.179C25.7543 27.1791 25.7543 27.1792 25.7543 27.1793C25.7543 27.1795 25.7543 27.1796 25.7543 27.1797C25.7543 27.1798 25.7543 27.1799 25.7543 27.18C25.7543 27.1801 25.7543 27.1802 25.7543 27.1803C25.7543 27.1804 25.7543 27.1805 25.7543 27.1807C25.7543 27.1808 25.7543 27.1809 25.7543 27.181C25.7543 27.1811 25.7543 27.1812 25.7543 27.1813C25.7543 27.1814 25.7543 27.1815 25.7543 27.1816C25.7543 27.1817 25.7543 27.1819 25.7543 27.182C25.7543 27.1821 25.7543 27.1822 25.7543 27.1823C25.7543 27.1824 25.7543 27.1825 25.7543 27.1826C25.7543 27.1827 25.7543 27.1828 25.7543 27.1829C25.7543 27.183 25.7543 27.1832 25.7543 27.1833C25.7543 27.1834 25.7543 27.1835 25.7543 27.1836C25.7543 27.1837 25.7543 27.1838 25.7543 27.1839C25.7543 27.184 25.7543 27.1841 25.7543 27.1842C25.7543 27.1844 25.7543 27.1845 25.7543 27.1846C25.7543 27.1847 25.7543 27.1848 25.7543 27.1849C25.7543 27.185 25.7543 27.1851 25.7543 27.1852C25.7543 27.1853 25.7543 27.1854 25.7543 27.1856C25.7543 27.1857 25.7543 27.1858 25.7543 27.1859C25.7543 27.186 25.7543 27.1861 25.7543 27.1862C25.7543 27.1863 25.7543 27.1864 25.7543 27.1865C25.7543 27.1866 25.7543 27.1867 25.7543 27.1869C25.7543 27.187 25.7543 27.1871 25.7543 27.1872C25.7543 27.1873 25.7543 27.1874 25.7543 27.1875C25.7543 27.1876 25.7543 27.1877 25.7543 27.1878C25.7543 27.1879 25.7543 27.1881 25.7543 27.1882C25.7543 27.1883 25.7543 27.1884 25.7543 27.1885C25.7543 27.1886 25.7543 27.1887 25.7543 27.1888C25.7543 27.1889 25.7543 27.189 25.7543 27.1891C25.7543 27.1893 25.7543 27.1894 25.7543 27.1895C25.7543 27.1896 25.7543 27.1897 25.7543 27.1898C25.7543 27.1899 25.7543 27.19 25.7543 27.1901C25.7543 27.1902 25.7543 27.1903 25.7543 27.1905C25.7543 27.1906 25.7543 27.1907 25.7543 27.1908C25.7543 27.1909 25.7543 27.191 25.7543 27.1911C25.7543 27.1912 25.7543 27.1913 25.7543 27.1914C25.7543 27.1915 25.7543 27.1916 25.7543 27.1918C25.7543 27.1919 25.7543 27.192 25.7543 27.1921C25.7543 27.1922 25.7543 27.1923 25.7543 27.1924C25.7543 27.1925 25.7543 27.1926 25.7543 27.1927C25.7543 27.1928 25.7543 27.193 25.7543 27.1931C25.7543 27.1932 25.7543 27.1933 25.7543 27.1934C25.7543 27.1935 25.7543 27.1936 25.7543 27.1937C25.7543 27.1938 25.7543 27.1939 25.7543 27.194C25.7543 27.1942 25.7543 27.1943 25.7543 27.1944C25.7543 27.1945 25.7543 27.1946 25.7543 27.1947C25.7543 27.1948 25.7543 27.1949 25.7543 27.195C25.7543 27.1951 25.7543 27.1952 25.7543 27.1954C25.7543 27.1955 25.7543 27.1956 25.7543 27.1957C25.7543 27.1958 25.7543 27.1959 25.7543 27.196C25.7543 27.1961 25.7543 27.1962 25.7543 27.1963C25.7543 27.1964 25.7543 27.1965 25.7543 27.1967C25.7543 27.1968 25.7543 27.1969 25.7543 27.197C25.7543 27.1971 25.7543 27.1972 25.7543 27.1973C25.7543 27.1974 25.7543 27.1975 25.7543 27.1976C25.7543 27.1977 25.7543 27.1979 25.7543 27.198C25.7543 27.1981 25.7543 27.1982 25.7543 27.1983C25.7543 27.1984 25.7543 27.1985 25.7543 27.1986C25.7543 27.1987 25.7543 27.1988 25.7543 27.1989C25.7543 27.1991 25.7543 27.1992 25.7543 27.1993C25.7543 27.1994 25.7543 27.1995 25.7543 27.1996C25.7543 27.1997 25.7543 27.1998 25.7543 27.1999C25.7543 27.2 25.7543 27.2001 25.7543 27.2002C25.7543 27.2004 25.7543 27.2005 25.7543 27.2006C25.7543 27.2007 25.7543 27.2008 25.7543 27.2009C25.7543 27.201 25.7543 27.2011 25.7543 27.2012C25.7543 27.2013 25.7543 27.2014 25.7543 27.2016C25.7543 27.2017 25.7543 27.2018 25.7543 27.2019C25.7543 27.202 25.7543 27.2021 25.7543 27.2022C25.7543 27.2023 25.7543 27.2024 25.7543 27.2025C25.7543 27.2026 25.7543 27.2028 25.7543 27.2029C25.7543 27.203 25.7543 27.2031 25.7543 27.2032C25.7543 27.2033 25.7543 27.2034 25.7543 27.2035C25.7543 27.2036 25.7543 27.2037 25.7543 27.2038C25.7543 27.2039 25.7543 27.2041 25.7543 27.2042C25.7543 27.2043 25.7543 27.2044 25.7543 27.2045C25.7543 27.2046 25.7543 27.2047 25.7543 27.2048C25.7543 27.2049 25.7543 27.205 25.7543 27.2051C25.7543 27.2053 25.7543 27.2054 25.7543 27.2055C25.7543 27.2056 25.7543 27.2057 25.7543 27.2058C25.7543 27.2059 25.7543 27.206 25.7543 27.2061C25.7543 27.2062 25.7543 27.2063 25.7543 27.2065C25.7543 27.2066 25.7543 27.2067 25.7543 27.2068C25.7543 27.2069 25.7543 27.207 25.7543 27.2071C25.7543 27.2072 25.7543 27.2073 25.7543 27.2074C25.7543 27.2075 25.7543 27.2076 25.7543 27.2078C25.7543 27.2079 25.7543 27.208 25.7543 27.2081C25.7543 27.2082 25.7543 27.2083 25.7543 27.2084C25.7543 27.2085 25.7543 27.2086 25.7543 27.2087C25.7543 27.2088 25.7543 27.209 25.7543 27.2091C25.7543 27.2092 25.7543 27.2093 25.7543 27.2094C25.7543 27.2095 25.7543 27.2096 25.7543 27.2097C25.7543 27.2098 25.7543 27.2099 25.7543 27.21C25.7543 27.2102 25.7543 27.2103 25.7543 27.2104C25.7543 27.2105 25.7543 27.2106 25.7543 27.2107C25.7543 27.2108 25.7543 27.2109 25.7543 27.211C25.7543 27.2111 25.7543 27.2112 25.7543 27.2113C25.7543 27.2115 25.7543 27.2116 25.7543 27.2117C25.7543 27.2118 25.7543 27.2119 25.7543 27.212C25.7543 27.2121 25.7543 27.2122 25.7543 27.2123C25.7543 27.2124 25.7543 27.2125 25.7543 27.2127C25.7543 27.2128 25.7543 27.2129 25.7543 27.213C25.7543 27.2131 25.7543 27.2132 25.7543 27.2133C25.7543 27.2134 25.7543 27.2135 25.7543 27.2136C25.7543 27.2137 25.7543 27.2139 25.7543 27.214C25.7543 27.2141 25.7543 27.2142 25.7543 27.2143C25.7543 27.2144 25.7543 27.2145 25.7543 27.2146C25.7543 27.2147 25.7543 27.2148 25.7543 27.2149C25.7543 27.215 25.7543 27.2152 25.7543 27.2153C25.7543 27.2154 25.7543 27.2155 25.7543 27.2156C25.7543 27.2157 25.7543 27.2158 25.7543 27.2159C25.7543 27.216 25.7543 27.2161 25.7543 27.2162C25.7543 27.2164 25.7543 27.2165 25.7543 27.2166C25.7543 27.2167 25.7543 27.2168 25.7543 27.2169C25.7543 27.217 25.7543 27.2171 25.7543 27.2172C25.7543 27.2173 25.7543 27.2174 25.7543 27.2176C25.7543 27.2177 25.7543 27.2178 25.7543 27.2179C25.7543 27.218 25.7543 27.2181 25.7543 27.2182C25.7543 27.2183 25.7543 27.2184 25.7543 27.2185C25.7543 27.2186 25.7543 27.2188 25.7543 27.2189C25.7543 27.219 25.7543 27.2191 25.7543 27.2192C25.7543 27.2193 25.7543 27.2194 25.7543 27.2195C25.7543 27.2196 25.7543 27.2197 25.7543 27.2198C25.7543 27.2199 25.7543 27.2201 25.7543 27.2202C25.7543 27.2203 25.7543 27.2204 25.7543 27.2205C25.7543 27.2206 25.7543 27.2207 25.7543 27.2208C25.7543 27.2209 25.7543 27.221 25.7543 27.2211C25.7543 27.2213 25.7543 27.2214 25.7543 27.2215C25.7543 27.2216 25.7543 27.2217 25.7543 27.2218C25.7543 27.2219 25.7543 27.222 25.7543 27.2221C25.7543 27.2222 25.7543 27.2223 25.7543 27.2225C25.7543 27.2226 25.7543 27.2227 25.7543 27.2228C25.7543 27.2229 25.7543 27.223 25.7543 27.2231C25.7543 27.2232 25.7543 27.2233 25.7543 27.2234C25.7543 27.2235 25.7543 27.2236 25.7543 27.2238C25.7543 27.2239 25.7543 27.224 25.7543 27.2241C25.7543 27.2242 25.7543 27.2243 25.7543 27.2244C25.7543 27.2245 25.7543 27.2246 25.7543 27.2247C25.7543 27.2248 25.7543 27.225 25.7543 27.2251C25.7543 27.2252 25.7543 27.2253 25.7543 27.2254C25.7543 27.2255 25.7543 27.2256 25.7543 27.2257C25.7543 27.2258 25.7543 27.2259 25.7543 27.226C25.7543 27.2262 25.7543 27.2263 25.7543 27.2264C25.7543 27.2265 25.7543 27.2266 25.7543 27.2267C25.7543 27.2268 25.7543 27.2269 25.7543 27.227C25.7543 27.2271 25.7543 27.2272 25.7543 27.2273C25.7543 27.2275 25.7543 27.2276 25.7543 27.2277C25.7543 27.2278 25.7543 27.2279 25.7543 27.228C25.7543 27.2281 25.7543 27.2282 25.7543 27.2283C25.7543 27.2284 25.7543 27.2285 25.7543 27.2287C25.7543 27.2288 25.7543 27.2289 25.7543 27.229C25.7543 27.2291 25.7543 27.2292 25.7543 27.2293C25.7543 27.2294 25.7543 27.2295 25.7543 27.2296C25.7543 27.2297 25.7543 27.2299 25.7543 27.23C25.7543 27.2301 25.7543 27.2302 25.7543 27.2303C25.7543 27.2304 25.7543 27.2305 25.7543 27.2306C25.7543 27.2307 25.7543 27.2308 25.7543 27.2309C25.7543 27.231 25.7543 27.2312 25.7543 27.2313C25.7543 27.2314 25.7543 27.2315 25.7543 27.2316C25.7543 27.2317 25.7543 27.2318 25.7543 27.2319C25.7543 27.232 25.7543 27.2321 25.7543 27.2322C25.7543 27.2324 25.7543 27.2325 25.7543 27.2326C25.7543 27.2327 25.7543 27.2328 25.7543 27.2329C25.7543 27.233 25.7543 27.2331 25.7543 27.2332C25.7543 27.2333 25.7543 27.2334 25.7543 27.2336C25.7543 27.2337 25.7543 27.2338 25.7543 27.2339C25.7543 27.234 25.7543 27.2341 25.7543 27.2342C25.7543 27.2343 25.7543 27.2344 25.7543 27.2345C25.7543 27.2346 25.7543 27.2347 25.7543 27.2349C25.7543 27.235 25.7543 27.2351 25.7543 27.2352C25.7543 27.2353 25.7543 27.2354 25.7543 27.2355C25.7543 27.2356 25.7543 27.2357 25.7543 27.2358C25.7543 27.2359 25.7543 27.2361 25.7543 27.2362C25.7543 27.2363 25.7543 27.2364 25.7543 27.2365C25.7543 27.2366 25.7543 27.2367 25.7543 27.2368C25.7543 27.2369 25.7543 27.237 25.7543 27.2371C25.7543 27.2373 25.7543 27.2374 25.7543 27.2375C25.7543 27.2376 25.7543 27.2377 25.7543 27.2378C25.7543 27.2379 25.7543 27.238 25.7543 27.2381C25.7543 27.2382 25.7543 27.2383 25.7543 27.2384C25.7543 27.2386 25.7543 27.2387 25.7543 27.2388C25.7543 27.2389 25.7543 27.239 25.7543 27.2391C25.7543 27.2392 25.7543 27.2393 25.7543 27.2394C25.7543 27.2395 25.7543 27.2396 25.7543 27.2398C25.7543 27.2399 25.7543 27.24 25.7543 27.2401C25.7543 27.2402 25.7543 27.2403 25.7543 27.2404C25.7543 27.2405 25.7543 27.2406 25.7543 27.2407C25.7543 27.2408 25.7543 27.241 25.7543 27.2411C25.7543 27.2412 25.7543 27.2413 25.7543 27.2414C25.7543 27.2415 25.7543 27.2416 25.7543 27.2417C25.7543 27.2418 25.7543 27.2419 25.7543 27.242C25.7543 27.2422 25.7543 27.2423 25.7543 27.2424C25.7543 27.2425 25.7543 27.2426 25.7543 27.2427C25.7543 27.2428 25.7543 27.2429 25.7543 27.243C25.7543 27.2431 25.7543 27.2432 25.7543 27.2433C25.7543 27.2435 25.7543 27.2436 25.7543 27.2437C25.7543 27.2438 25.7543 27.2439 25.7543 27.244C25.7543 27.2441 25.7543 27.2442 25.7543 27.2443C25.7543 27.2444 25.7543 27.2445 25.7543 27.2447C25.7543 27.2448 25.7543 27.2449 25.7543 27.245C25.7543 27.2451 25.7543 27.2452 25.7543 27.2453C25.7543 27.2454 25.7543 27.2455 25.7543 27.2456C25.7543 27.2457 25.7543 27.2459 25.7543 27.246C25.7543 27.2461 25.7543 27.2462 25.7543 27.2463C25.7543 27.2464 25.7543 27.2465 25.7543 27.2466C25.7543 27.2467 25.7543 27.2468 25.7543 27.2469C25.7543 27.247 25.7543 27.2472 25.7543 27.2473C25.7543 27.2474 25.7543 27.2475 25.7543 27.2476C25.7543 27.2477 25.7543 27.2478 25.7543 27.2479C25.7543 27.248 25.7543 27.2481 25.7543 27.2482C25.7543 27.2484 25.7543 27.2485 25.7543 27.2486C25.7543 27.2487 25.7543 27.2488 25.7543 27.2489C25.7543 27.249 25.7543 27.2491 25.7543 27.2492C25.7543 27.2493 25.7543 27.2494 25.7543 27.2496C25.7543 27.2497 25.7543 27.2498 25.7543 27.2499C25.7543 27.25 25.7543 27.2501 25.7543 27.2502C25.7543 27.2503 25.7543 27.2504 25.7543 27.2505C25.7543 27.2506 25.7543 27.2508 25.7543 27.2509C25.7543 27.251 25.7543 27.2511 25.7543 27.2512C25.7543 27.2513 25.7543 27.2514 25.7543 27.2515C25.7543 27.2516 25.7543 27.2517 25.7543 27.2518C25.7543 27.2519 25.7543 27.2521 25.7543 27.2522C25.7543 27.2523 25.7543 27.2524 25.7543 27.2525C25.7543 27.2526 25.7543 27.2527 25.7543 27.2528C25.7543 27.2529 25.7543 27.253 25.7543 27.2531C25.7543 27.2533 25.7543 27.2534 25.7543 27.2535C25.7543 27.2536 25.7543 27.2537 25.7543 27.2538C25.7543 27.2539 25.7543 27.254 25.7543 27.2541C25.7543 27.2542 25.7543 27.2543 25.7543 27.2545C25.7543 27.2546 25.7543 27.2547 25.7543 27.2548C25.7543 27.2549 25.7543 27.255 25.7543 27.2551C25.7543 27.2552 25.7543 27.2553 25.7543 27.2554C25.7543 27.2555 25.7543 27.2556 25.7543 27.2558C25.7543 27.2559 25.7543 27.256 25.7543 27.2561C25.7543 27.2562 25.7543 27.2563 25.7543 27.2564C25.7543 27.2565 25.7543 27.2566 25.7543 27.2567C25.7543 27.2568 25.7543 27.257 25.7543 27.2571C25.7543 27.2572 25.7543 27.2573 25.7543 27.2574C25.7543 27.2575 25.7543 27.2576 25.7543 27.2577C25.7543 27.2578 25.7543 27.2579 25.7543 27.258C25.7543 27.2582 25.7543 27.2583 25.7543 27.2584C25.7543 27.2585 25.7543 27.2586 25.7543 27.2587C25.7543 27.2588 25.7543 27.2589 25.7543 27.259C25.7543 27.2591 25.7543 27.2592 25.7543 27.2593C25.7543 27.2595 25.7543 27.2596 25.7543 27.2597C25.7543 27.2598 25.7543 27.2599 25.7543 27.26C25.7543 27.2601 25.7543 27.2602 25.7543 27.2603C25.7543 27.2604 25.7543 27.2605 25.7543 27.2607C25.7543 27.2608 25.7543 27.2609 25.7543 27.261C25.7543 27.2611 25.7543 27.2612 25.7543 27.2613C25.7543 27.2614 25.7543 27.2615 25.7543 27.2616C25.7543 27.2617 25.7543 27.2619 25.7543 27.262C25.7543 27.2621 25.7543 27.2622 25.7543 27.2623C25.7543 27.2624 25.7543 27.2625 25.7543 27.2626C25.7543 27.2627 25.7543 27.2628 25.7543 27.2629C25.7543 27.2631 25.7543 27.2632 25.7543 27.2633C25.7543 27.2634 25.7543 27.2635 25.7543 27.2636C25.7543 27.2637 25.7543 27.2638 25.7543 27.2639C25.7543 27.264 25.7543 27.2641 25.7543 27.2642C25.7543 27.2644 25.7543 27.2645 25.7543 27.2646C25.7543 27.2647 25.7543 27.2648 25.7543 27.2649C25.7543 27.265 25.7543 27.2651 25.7543 27.2652C25.7543 27.2653 25.7543 27.2654 25.7543 27.2656C25.7543 27.2657 25.7543 27.2658 25.7543 27.2659C25.7543 27.266 25.7543 27.2661 25.7543 27.2662C25.7543 27.2663 25.7543 27.2664 25.7543 27.2665C25.7543 27.2666 25.7543 27.2668 25.7543 27.2669C25.7543 27.267 25.7543 27.2671 25.7543 27.2672C25.7543 27.2673 25.7543 27.2674 25.7543 27.2675C25.7543 27.2676 25.7543 27.2677 25.7543 27.2678C25.7543 27.2679 25.7543 27.2681 25.7543 27.2682C25.7543 27.2683 25.7543 27.2684 25.7543 27.2685C25.7543 27.2686 25.7543 27.2687 25.7543 27.2688C25.7543 27.2689 25.7543 27.269 25.7543 27.2691C25.7543 27.2693 25.7543 27.2694 25.7543 27.2695C25.7543 27.2696 25.7543 27.2697 25.7543 27.2698C25.7543 27.2699 25.7543 27.27 25.7543 27.2701C25.7543 27.2702 25.7543 27.2703 25.7543 27.2705C25.7543 27.2706 25.7543 27.2707 25.7543 27.2708C25.7543 27.2709 25.7543 27.271 25.7543 27.2711C25.7543 27.2712 25.7543 27.2713 25.7543 27.2714C25.7543 27.2715 25.7543 27.2716 25.7543 27.2718C25.7543 27.2719 25.7543 27.272 25.7543 27.2721C25.7543 27.2722 25.7543 27.2723 25.7543 27.2724C25.7543 27.2725 25.7543 27.2726 25.7543 27.2727C25.7543 27.2728 25.7543 27.273 25.7543 27.2731C25.7543 27.2732 25.7543 27.2733 25.7543 27.2734C25.7543 27.2735 25.7543 27.2736 25.7543 27.2737C25.7543 27.2738 25.7543 27.2739 25.7543 27.274C25.7543 27.2742 25.7543 27.2743 25.7543 27.2744C25.7543 27.2745 25.7543 27.2746 25.7543 27.2747C25.7543 27.2748 25.7543 27.2749 25.7543 27.275C25.7543 27.2751 25.7543 27.2752 25.7543 27.2753C25.7543 27.2755 25.7543 27.2756 25.7543 27.2757C25.7543 27.2758 25.7543 27.2759 25.7543 27.276C25.7543 27.2761 25.7543 27.2762 25.7543 27.2763C25.7543 27.2764 25.7543 27.2765 25.7543 27.2767C25.7543 27.2768 25.7543 27.2769 25.7543 27.277C25.7543 27.2771 25.7543 27.2772 25.7543 27.2773C25.7543 27.2774 25.7543 27.2775 25.7543 27.2776C25.7543 27.2777 25.7543 27.2779 25.7543 27.278C25.7543 27.2781 25.7543 27.2782 25.7543 27.2783C25.7543 27.2784 25.7543 27.2785 25.7543 27.2786C25.7543 27.2787 25.7543 27.2788 25.7543 27.2789C25.7543 27.279 25.7543 27.2792 25.7543 27.2793C25.7543 27.2794 25.7543 27.2795 25.7543 27.2796C25.7543 27.2797 25.7543 27.2798 25.7543 27.2799C25.7543 27.28 25.7543 27.2801 25.7543 27.2802C25.7543 27.2804 25.7543 27.2805 25.7543 27.2806C25.7543 27.2807 25.7543 27.2808 25.7543 27.2809C25.7543 27.281 25.7543 27.2811 25.7543 27.2812C25.7543 27.2813 25.7543 27.2814 25.7543 27.2816C25.7543 27.2817 25.7543 27.2818 25.7543 27.2819C25.7543 27.282 25.7543 27.2821 25.7543 27.2822C25.7543 27.2823 25.7543 27.2824 25.7543 27.2825C25.7543 27.2826 25.7543 27.2827 25.7543 27.2829C25.7543 27.283 25.7543 27.2831 25.7543 27.2832C25.7543 27.2833 25.7543 27.2834 25.7543 27.2835C25.7543 27.2836 25.7543 27.2837 25.7543 27.2838C25.7543 27.2839 25.7543 27.2841 25.7543 27.2842C25.7543 27.2843 25.7543 27.2844 25.7543 27.2845C25.7543 27.2846 25.7543 27.2847 25.7543 27.2848C25.7543 27.2849 25.7543 27.285 25.7543 27.2851C25.7543 27.2853 25.7543 27.2854 25.7543 27.2855C25.7543 27.2856 25.7543 27.2857 25.7543 27.2858C25.7543 27.2859 25.7543 27.286 25.7543 27.2861C25.7543 27.2862 25.7543 27.2863 25.7543 27.2864C25.7543 27.2866 25.7543 27.2867 25.7543 27.2868C25.7543 27.2869 25.7543 27.287 25.7543 27.2871C25.7543 27.2872 25.7543 27.2873 25.7543 27.2874C25.7543 27.2875 25.7543 27.2876 25.7543 27.2878C25.7543 27.2879 25.7543 27.288 25.7543 27.2881C25.7543 27.2882 25.7543 27.2883 25.7543 27.2884C25.7543 27.2885 25.7543 27.2886 25.7543 27.2887C25.7543 27.2888 25.7543 27.289 25.7543 27.2891C25.7543 27.2892 25.7543 27.2893 25.7543 27.2894C25.7543 27.2895 25.7543 27.2896 25.7543 27.2897C25.7543 27.2898 25.7543 27.2899 25.7543 27.29C25.7543 27.2902 25.7543 27.2903 25.7543 27.2904C25.7543 27.2905 25.7543 27.2906 25.7543 27.2907C25.7543 27.2908 25.7543 27.2909 25.7543 27.291C25.7543 27.2911 25.7543 27.2912 25.7543 27.2913C25.7543 27.2915 25.7543 27.2916 25.7543 27.2917C25.7543 27.2918 25.7543 27.2919 25.7543 27.292C25.7543 27.2921 25.7543 27.2922 25.7543 27.2923C25.7543 27.2924 25.7543 27.2925 25.7543 27.2927C25.7543 27.2928 25.7543 27.2929 25.7543 27.293C25.7543 27.2931 25.7543 27.2932 25.7543 27.2933C25.7543 27.2934 25.7543 27.2935 25.7543 27.2936C25.7543 27.2937 25.7543 27.2939 25.7543 27.294C25.7543 27.2941 25.7543 27.2942 25.7543 27.2943C25.7543 27.2944 25.7543 27.2945 25.7543 27.2946C25.7543 27.2947 25.7543 27.2948 25.7543 27.2949C25.7543 27.295 25.7543 27.2952 25.7543 27.2953C25.7543 27.2954 25.7543 27.2955 25.7543 27.2956C25.7543 27.2957 25.7543 27.2958 25.7543 27.2959C25.7543 27.296 25.7543 27.2961 25.7543 27.2962C25.7543 27.2964 25.7543 27.2965 25.7543 27.2966H26.2543H26.7543C26.7543 27.2965 26.7543 27.2964 26.7543 27.2962C26.7543 27.2961 26.7543 27.296 26.7543 27.2959C26.7543 27.2958 26.7543 27.2957 26.7543 27.2956C26.7543 27.2955 26.7543 27.2954 26.7543 27.2953C26.7543 27.2952 26.7543 27.295 26.7543 27.2949C26.7543 27.2948 26.7543 27.2947 26.7543 27.2946C26.7543 27.2945 26.7543 27.2944 26.7543 27.2943C26.7543 27.2942 26.7543 27.2941 26.7543 27.294C26.7543 27.2939 26.7543 27.2937 26.7543 27.2936C26.7543 27.2935 26.7543 27.2934 26.7543 27.2933C26.7543 27.2932 26.7543 27.2931 26.7543 27.293C26.7543 27.2929 26.7543 27.2928 26.7543 27.2927C26.7543 27.2925 26.7543 27.2924 26.7543 27.2923C26.7543 27.2922 26.7543 27.2921 26.7543 27.292C26.7543 27.2919 26.7543 27.2918 26.7543 27.2917C26.7543 27.2916 26.7543 27.2915 26.7543 27.2913C26.7543 27.2912 26.7543 27.2911 26.7543 27.291C26.7543 27.2909 26.7543 27.2908 26.7543 27.2907C26.7543 27.2906 26.7543 27.2905 26.7543 27.2904C26.7543 27.2903 26.7543 27.2902 26.7543 27.29C26.7543 27.2899 26.7543 27.2898 26.7543 27.2897C26.7543 27.2896 26.7543 27.2895 26.7543 27.2894C26.7543 27.2893 26.7543 27.2892 26.7543 27.2891C26.7543 27.289 26.7543 27.2888 26.7543 27.2887C26.7543 27.2886 26.7543 27.2885 26.7543 27.2884C26.7543 27.2883 26.7543 27.2882 26.7543 27.2881C26.7543 27.288 26.7543 27.2879 26.7543 27.2878C26.7543 27.2876 26.7543 27.2875 26.7543 27.2874C26.7543 27.2873 26.7543 27.2872 26.7543 27.2871C26.7543 27.287 26.7543 27.2869 26.7543 27.2868C26.7543 27.2867 26.7543 27.2866 26.7543 27.2864C26.7543 27.2863 26.7543 27.2862 26.7543 27.2861C26.7543 27.286 26.7543 27.2859 26.7543 27.2858C26.7543 27.2857 26.7543 27.2856 26.7543 27.2855C26.7543 27.2854 26.7543 27.2853 26.7543 27.2851C26.7543 27.285 26.7543 27.2849 26.7543 27.2848C26.7543 27.2847 26.7543 27.2846 26.7543 27.2845C26.7543 27.2844 26.7543 27.2843 26.7543 27.2842C26.7543 27.2841 26.7543 27.2839 26.7543 27.2838C26.7543 27.2837 26.7543 27.2836 26.7543 27.2835C26.7543 27.2834 26.7543 27.2833 26.7543 27.2832C26.7543 27.2831 26.7543 27.283 26.7543 27.2829C26.7543 27.2827 26.7543 27.2826 26.7543 27.2825C26.7543 27.2824 26.7543 27.2823 26.7543 27.2822C26.7543 27.2821 26.7543 27.282 26.7543 27.2819C26.7543 27.2818 26.7543 27.2817 26.7543 27.2816C26.7543 27.2814 26.7543 27.2813 26.7543 27.2812C26.7543 27.2811 26.7543 27.281 26.7543 27.2809C26.7543 27.2808 26.7543 27.2807 26.7543 27.2806C26.7543 27.2805 26.7543 27.2804 26.7543 27.2802C26.7543 27.2801 26.7543 27.28 26.7543 27.2799C26.7543 27.2798 26.7543 27.2797 26.7543 27.2796C26.7543 27.2795 26.7543 27.2794 26.7543 27.2793C26.7543 27.2792 26.7543 27.279 26.7543 27.2789C26.7543 27.2788 26.7543 27.2787 26.7543 27.2786C26.7543 27.2785 26.7543 27.2784 26.7543 27.2783C26.7543 27.2782 26.7543 27.2781 26.7543 27.278C26.7543 27.2779 26.7543 27.2777 26.7543 27.2776C26.7543 27.2775 26.7543 27.2774 26.7543 27.2773C26.7543 27.2772 26.7543 27.2771 26.7543 27.277C26.7543 27.2769 26.7543 27.2768 26.7543 27.2767C26.7543 27.2765 26.7543 27.2764 26.7543 27.2763C26.7543 27.2762 26.7543 27.2761 26.7543 27.276C26.7543 27.2759 26.7543 27.2758 26.7543 27.2757C26.7543 27.2756 26.7543 27.2755 26.7543 27.2753C26.7543 27.2752 26.7543 27.2751 26.7543 27.275C26.7543 27.2749 26.7543 27.2748 26.7543 27.2747C26.7543 27.2746 26.7543 27.2745 26.7543 27.2744C26.7543 27.2743 26.7543 27.2742 26.7543 27.274C26.7543 27.2739 26.7543 27.2738 26.7543 27.2737C26.7543 27.2736 26.7543 27.2735 26.7543 27.2734C26.7543 27.2733 26.7543 27.2732 26.7543 27.2731C26.7543 27.273 26.7543 27.2728 26.7543 27.2727C26.7543 27.2726 26.7543 27.2725 26.7543 27.2724C26.7543 27.2723 26.7543 27.2722 26.7543 27.2721C26.7543 27.272 26.7543 27.2719 26.7543 27.2718C26.7543 27.2716 26.7543 27.2715 26.7543 27.2714C26.7543 27.2713 26.7543 27.2712 26.7543 27.2711C26.7543 27.271 26.7543 27.2709 26.7543 27.2708C26.7543 27.2707 26.7543 27.2706 26.7543 27.2705C26.7543 27.2703 26.7543 27.2702 26.7543 27.2701C26.7543 27.27 26.7543 27.2699 26.7543 27.2698C26.7543 27.2697 26.7543 27.2696 26.7543 27.2695C26.7543 27.2694 26.7543 27.2693 26.7543 27.2691C26.7543 27.269 26.7543 27.2689 26.7543 27.2688C26.7543 27.2687 26.7543 27.2686 26.7543 27.2685C26.7543 27.2684 26.7543 27.2683 26.7543 27.2682C26.7543 27.2681 26.7543 27.2679 26.7543 27.2678C26.7543 27.2677 26.7543 27.2676 26.7543 27.2675C26.7543 27.2674 26.7543 27.2673 26.7543 27.2672C26.7543 27.2671 26.7543 27.267 26.7543 27.2669C26.7543 27.2668 26.7543 27.2666 26.7543 27.2665C26.7543 27.2664 26.7543 27.2663 26.7543 27.2662C26.7543 27.2661 26.7543 27.266 26.7543 27.2659C26.7543 27.2658 26.7543 27.2657 26.7543 27.2656C26.7543 27.2654 26.7543 27.2653 26.7543 27.2652C26.7543 27.2651 26.7543 27.265 26.7543 27.2649C26.7543 27.2648 26.7543 27.2647 26.7543 27.2646C26.7543 27.2645 26.7543 27.2644 26.7543 27.2642C26.7543 27.2641 26.7543 27.264 26.7543 27.2639C26.7543 27.2638 26.7543 27.2637 26.7543 27.2636C26.7543 27.2635 26.7543 27.2634 26.7543 27.2633C26.7543 27.2632 26.7543 27.2631 26.7543 27.2629C26.7543 27.2628 26.7543 27.2627 26.7543 27.2626C26.7543 27.2625 26.7543 27.2624 26.7543 27.2623C26.7543 27.2622 26.7543 27.2621 26.7543 27.262C26.7543 27.2619 26.7543 27.2617 26.7543 27.2616C26.7543 27.2615 26.7543 27.2614 26.7543 27.2613C26.7543 27.2612 26.7543 27.2611 26.7543 27.261C26.7543 27.2609 26.7543 27.2608 26.7543 27.2607C26.7543 27.2605 26.7543 27.2604 26.7543 27.2603C26.7543 27.2602 26.7543 27.2601 26.7543 27.26C26.7543 27.2599 26.7543 27.2598 26.7543 27.2597C26.7543 27.2596 26.7543 27.2595 26.7543 27.2593C26.7543 27.2592 26.7543 27.2591 26.7543 27.259C26.7543 27.2589 26.7543 27.2588 26.7543 27.2587C26.7543 27.2586 26.7543 27.2585 26.7543 27.2584C26.7543 27.2583 26.7543 27.2582 26.7543 27.258C26.7543 27.2579 26.7543 27.2578 26.7543 27.2577C26.7543 27.2576 26.7543 27.2575 26.7543 27.2574C26.7543 27.2573 26.7543 27.2572 26.7543 27.2571C26.7543 27.257 26.7543 27.2568 26.7543 27.2567C26.7543 27.2566 26.7543 27.2565 26.7543 27.2564C26.7543 27.2563 26.7543 27.2562 26.7543 27.2561C26.7543 27.256 26.7543 27.2559 26.7543 27.2558C26.7543 27.2556 26.7543 27.2555 26.7543 27.2554C26.7543 27.2553 26.7543 27.2552 26.7543 27.2551C26.7543 27.255 26.7543 27.2549 26.7543 27.2548C26.7543 27.2547 26.7543 27.2546 26.7543 27.2545C26.7543 27.2543 26.7543 27.2542 26.7543 27.2541C26.7543 27.254 26.7543 27.2539 26.7543 27.2538C26.7543 27.2537 26.7543 27.2536 26.7543 27.2535C26.7543 27.2534 26.7543 27.2533 26.7543 27.2531C26.7543 27.253 26.7543 27.2529 26.7543 27.2528C26.7543 27.2527 26.7543 27.2526 26.7543 27.2525C26.7543 27.2524 26.7543 27.2523 26.7543 27.2522C26.7543 27.2521 26.7543 27.2519 26.7543 27.2518C26.7543 27.2517 26.7543 27.2516 26.7543 27.2515C26.7543 27.2514 26.7543 27.2513 26.7543 27.2512C26.7543 27.2511 26.7543 27.251 26.7543 27.2509C26.7543 27.2508 26.7543 27.2506 26.7543 27.2505C26.7543 27.2504 26.7543 27.2503 26.7543 27.2502C26.7543 27.2501 26.7543 27.25 26.7543 27.2499C26.7543 27.2498 26.7543 27.2497 26.7543 27.2496C26.7543 27.2494 26.7543 27.2493 26.7543 27.2492C26.7543 27.2491 26.7543 27.249 26.7543 27.2489C26.7543 27.2488 26.7543 27.2487 26.7543 27.2486C26.7543 27.2485 26.7543 27.2484 26.7543 27.2482C26.7543 27.2481 26.7543 27.248 26.7543 27.2479C26.7543 27.2478 26.7543 27.2477 26.7543 27.2476C26.7543 27.2475 26.7543 27.2474 26.7543 27.2473C26.7543 27.2472 26.7543 27.247 26.7543 27.2469C26.7543 27.2468 26.7543 27.2467 26.7543 27.2466C26.7543 27.2465 26.7543 27.2464 26.7543 27.2463C26.7543 27.2462 26.7543 27.2461 26.7543 27.246C26.7543 27.2459 26.7543 27.2457 26.7543 27.2456C26.7543 27.2455 26.7543 27.2454 26.7543 27.2453C26.7543 27.2452 26.7543 27.2451 26.7543 27.245C26.7543 27.2449 26.7543 27.2448 26.7543 27.2447C26.7543 27.2445 26.7543 27.2444 26.7543 27.2443C26.7543 27.2442 26.7543 27.2441 26.7543 27.244C26.7543 27.2439 26.7543 27.2438 26.7543 27.2437C26.7543 27.2436 26.7543 27.2435 26.7543 27.2433C26.7543 27.2432 26.7543 27.2431 26.7543 27.243C26.7543 27.2429 26.7543 27.2428 26.7543 27.2427C26.7543 27.2426 26.7543 27.2425 26.7543 27.2424C26.7543 27.2423 26.7543 27.2422 26.7543 27.242C26.7543 27.2419 26.7543 27.2418 26.7543 27.2417C26.7543 27.2416 26.7543 27.2415 26.7543 27.2414C26.7543 27.2413 26.7543 27.2412 26.7543 27.2411C26.7543 27.241 26.7543 27.2408 26.7543 27.2407C26.7543 27.2406 26.7543 27.2405 26.7543 27.2404C26.7543 27.2403 26.7543 27.2402 26.7543 27.2401C26.7543 27.24 26.7543 27.2399 26.7543 27.2398C26.7543 27.2396 26.7543 27.2395 26.7543 27.2394C26.7543 27.2393 26.7543 27.2392 26.7543 27.2391C26.7543 27.239 26.7543 27.2389 26.7543 27.2388C26.7543 27.2387 26.7543 27.2386 26.7543 27.2384C26.7543 27.2383 26.7543 27.2382 26.7543 27.2381C26.7543 27.238 26.7543 27.2379 26.7543 27.2378C26.7543 27.2377 26.7543 27.2376 26.7543 27.2375C26.7543 27.2374 26.7543 27.2373 26.7543 27.2371C26.7543 27.237 26.7543 27.2369 26.7543 27.2368C26.7543 27.2367 26.7543 27.2366 26.7543 27.2365C26.7543 27.2364 26.7543 27.2363 26.7543 27.2362C26.7543 27.2361 26.7543 27.2359 26.7543 27.2358C26.7543 27.2357 26.7543 27.2356 26.7543 27.2355C26.7543 27.2354 26.7543 27.2353 26.7543 27.2352C26.7543 27.2351 26.7543 27.235 26.7543 27.2349C26.7543 27.2347 26.7543 27.2346 26.7543 27.2345C26.7543 27.2344 26.7543 27.2343 26.7543 27.2342C26.7543 27.2341 26.7543 27.234 26.7543 27.2339C26.7543 27.2338 26.7543 27.2337 26.7543 27.2336C26.7543 27.2334 26.7543 27.2333 26.7543 27.2332C26.7543 27.2331 26.7543 27.233 26.7543 27.2329C26.7543 27.2328 26.7543 27.2327 26.7543 27.2326C26.7543 27.2325 26.7543 27.2324 26.7543 27.2322C26.7543 27.2321 26.7543 27.232 26.7543 27.2319C26.7543 27.2318 26.7543 27.2317 26.7543 27.2316C26.7543 27.2315 26.7543 27.2314 26.7543 27.2313C26.7543 27.2312 26.7543 27.231 26.7543 27.2309C26.7543 27.2308 26.7543 27.2307 26.7543 27.2306C26.7543 27.2305 26.7543 27.2304 26.7543 27.2303C26.7543 27.2302 26.7543 27.2301 26.7543 27.23C26.7543 27.2299 26.7543 27.2297 26.7543 27.2296C26.7543 27.2295 26.7543 27.2294 26.7543 27.2293C26.7543 27.2292 26.7543 27.2291 26.7543 27.229C26.7543 27.2289 26.7543 27.2288 26.7543 27.2287C26.7543 27.2285 26.7543 27.2284 26.7543 27.2283C26.7543 27.2282 26.7543 27.2281 26.7543 27.228C26.7543 27.2279 26.7543 27.2278 26.7543 27.2277C26.7543 27.2276 26.7543 27.2275 26.7543 27.2273C26.7543 27.2272 26.7543 27.2271 26.7543 27.227C26.7543 27.2269 26.7543 27.2268 26.7543 27.2267C26.7543 27.2266 26.7543 27.2265 26.7543 27.2264C26.7543 27.2263 26.7543 27.2262 26.7543 27.226C26.7543 27.2259 26.7543 27.2258 26.7543 27.2257C26.7543 27.2256 26.7543 27.2255 26.7543 27.2254C26.7543 27.2253 26.7543 27.2252 26.7543 27.2251C26.7543 27.225 26.7543 27.2248 26.7543 27.2247C26.7543 27.2246 26.7543 27.2245 26.7543 27.2244C26.7543 27.2243 26.7543 27.2242 26.7543 27.2241C26.7543 27.224 26.7543 27.2239 26.7543 27.2238C26.7543 27.2236 26.7543 27.2235 26.7543 27.2234C26.7543 27.2233 26.7543 27.2232 26.7543 27.2231C26.7543 27.223 26.7543 27.2229 26.7543 27.2228C26.7543 27.2227 26.7543 27.2226 26.7543 27.2225C26.7543 27.2223 26.7543 27.2222 26.7543 27.2221C26.7543 27.222 26.7543 27.2219 26.7543 27.2218C26.7543 27.2217 26.7543 27.2216 26.7543 27.2215C26.7543 27.2214 26.7543 27.2213 26.7543 27.2211C26.7543 27.221 26.7543 27.2209 26.7543 27.2208C26.7543 27.2207 26.7543 27.2206 26.7543 27.2205C26.7543 27.2204 26.7543 27.2203 26.7543 27.2202C26.7543 27.2201 26.7543 27.2199 26.7543 27.2198C26.7543 27.2197 26.7543 27.2196 26.7543 27.2195C26.7543 27.2194 26.7543 27.2193 26.7543 27.2192C26.7543 27.2191 26.7543 27.219 26.7543 27.2189C26.7543 27.2188 26.7543 27.2186 26.7543 27.2185C26.7543 27.2184 26.7543 27.2183 26.7543 27.2182C26.7543 27.2181 26.7543 27.218 26.7543 27.2179C26.7543 27.2178 26.7543 27.2177 26.7543 27.2176C26.7543 27.2174 26.7543 27.2173 26.7543 27.2172C26.7543 27.2171 26.7543 27.217 26.7543 27.2169C26.7543 27.2168 26.7543 27.2167 26.7543 27.2166C26.7543 27.2165 26.7543 27.2164 26.7543 27.2162C26.7543 27.2161 26.7543 27.216 26.7543 27.2159C26.7543 27.2158 26.7543 27.2157 26.7543 27.2156C26.7543 27.2155 26.7543 27.2154 26.7543 27.2153C26.7543 27.2152 26.7543 27.215 26.7543 27.2149C26.7543 27.2148 26.7543 27.2147 26.7543 27.2146C26.7543 27.2145 26.7543 27.2144 26.7543 27.2143C26.7543 27.2142 26.7543 27.2141 26.7543 27.214C26.7543 27.2139 26.7543 27.2137 26.7543 27.2136C26.7543 27.2135 26.7543 27.2134 26.7543 27.2133C26.7543 27.2132 26.7543 27.2131 26.7543 27.213C26.7543 27.2129 26.7543 27.2128 26.7543 27.2127C26.7543 27.2125 26.7543 27.2124 26.7543 27.2123C26.7543 27.2122 26.7543 27.2121 26.7543 27.212C26.7543 27.2119 26.7543 27.2118 26.7543 27.2117C26.7543 27.2116 26.7543 27.2115 26.7543 27.2113C26.7543 27.2112 26.7543 27.2111 26.7543 27.211C26.7543 27.2109 26.7543 27.2108 26.7543 27.2107C26.7543 27.2106 26.7543 27.2105 26.7543 27.2104C26.7543 27.2103 26.7543 27.2102 26.7543 27.21C26.7543 27.2099 26.7543 27.2098 26.7543 27.2097C26.7543 27.2096 26.7543 27.2095 26.7543 27.2094C26.7543 27.2093 26.7543 27.2092 26.7543 27.2091C26.7543 27.209 26.7543 27.2088 26.7543 27.2087C26.7543 27.2086 26.7543 27.2085 26.7543 27.2084C26.7543 27.2083 26.7543 27.2082 26.7543 27.2081C26.7543 27.208 26.7543 27.2079 26.7543 27.2078C26.7543 27.2076 26.7543 27.2075 26.7543 27.2074C26.7543 27.2073 26.7543 27.2072 26.7543 27.2071C26.7543 27.207 26.7543 27.2069 26.7543 27.2068C26.7543 27.2067 26.7543 27.2066 26.7543 27.2065C26.7543 27.2063 26.7543 27.2062 26.7543 27.2061C26.7543 27.206 26.7543 27.2059 26.7543 27.2058C26.7543 27.2057 26.7543 27.2056 26.7543 27.2055C26.7543 27.2054 26.7543 27.2053 26.7543 27.2051C26.7543 27.205 26.7543 27.2049 26.7543 27.2048C26.7543 27.2047 26.7543 27.2046 26.7543 27.2045C26.7543 27.2044 26.7543 27.2043 26.7543 27.2042C26.7543 27.2041 26.7543 27.2039 26.7543 27.2038C26.7543 27.2037 26.7543 27.2036 26.7543 27.2035C26.7543 27.2034 26.7543 27.2033 26.7543 27.2032C26.7543 27.2031 26.7543 27.203 26.7543 27.2029C26.7543 27.2028 26.7543 27.2026 26.7543 27.2025C26.7543 27.2024 26.7543 27.2023 26.7543 27.2022C26.7543 27.2021 26.7543 27.202 26.7543 27.2019C26.7543 27.2018 26.7543 27.2017 26.7543 27.2016C26.7543 27.2014 26.7543 27.2013 26.7543 27.2012C26.7543 27.2011 26.7543 27.201 26.7543 27.2009C26.7543 27.2008 26.7543 27.2007 26.7543 27.2006C26.7543 27.2005 26.7543 27.2004 26.7543 27.2002C26.7543 27.2001 26.7543 27.2 26.7543 27.1999C26.7543 27.1998 26.7543 27.1997 26.7543 27.1996C26.7543 27.1995 26.7543 27.1994 26.7543 27.1993C26.7543 27.1992 26.7543 27.1991 26.7543 27.1989C26.7543 27.1988 26.7543 27.1987 26.7543 27.1986C26.7543 27.1985 26.7543 27.1984 26.7543 27.1983C26.7543 27.1982 26.7543 27.1981 26.7543 27.198C26.7543 27.1979 26.7543 27.1977 26.7543 27.1976C26.7543 27.1975 26.7543 27.1974 26.7543 27.1973C26.7543 27.1972 26.7543 27.1971 26.7543 27.197C26.7543 27.1969 26.7543 27.1968 26.7543 27.1967C26.7543 27.1965 26.7543 27.1964 26.7543 27.1963C26.7543 27.1962 26.7543 27.1961 26.7543 27.196C26.7543 27.1959 26.7543 27.1958 26.7543 27.1957C26.7543 27.1956 26.7543 27.1955 26.7543 27.1954C26.7543 27.1952 26.7543 27.1951 26.7543 27.195C26.7543 27.1949 26.7543 27.1948 26.7543 27.1947C26.7543 27.1946 26.7543 27.1945 26.7543 27.1944C26.7543 27.1943 26.7543 27.1942 26.7543 27.194C26.7543 27.1939 26.7543 27.1938 26.7543 27.1937C26.7543 27.1936 26.7543 27.1935 26.7543 27.1934C26.7543 27.1933 26.7543 27.1932 26.7543 27.1931C26.7543 27.193 26.7543 27.1928 26.7543 27.1927C26.7543 27.1926 26.7543 27.1925 26.7543 27.1924C26.7543 27.1923 26.7543 27.1922 26.7543 27.1921C26.7543 27.192 26.7543 27.1919 26.7543 27.1918C26.7543 27.1916 26.7543 27.1915 26.7543 27.1914C26.7543 27.1913 26.7543 27.1912 26.7543 27.1911C26.7543 27.191 26.7543 27.1909 26.7543 27.1908C26.7543 27.1907 26.7543 27.1906 26.7543 27.1905C26.7543 27.1903 26.7543 27.1902 26.7543 27.1901C26.7543 27.19 26.7543 27.1899 26.7543 27.1898C26.7543 27.1897 26.7543 27.1896 26.7543 27.1895C26.7543 27.1894 26.7543 27.1893 26.7543 27.1891C26.7543 27.189 26.7543 27.1889 26.7543 27.1888C26.7543 27.1887 26.7543 27.1886 26.7543 27.1885C26.7543 27.1884 26.7543 27.1883 26.7543 27.1882C26.7543 27.1881 26.7543 27.1879 26.7543 27.1878C26.7543 27.1877 26.7543 27.1876 26.7543 27.1875C26.7543 27.1874 26.7543 27.1873 26.7543 27.1872C26.7543 27.1871 26.7543 27.187 26.7543 27.1869C26.7543 27.1867 26.7543 27.1866 26.7543 27.1865C26.7543 27.1864 26.7543 27.1863 26.7543 27.1862C26.7543 27.1861 26.7543 27.186 26.7543 27.1859C26.7543 27.1858 26.7543 27.1857 26.7543 27.1856C26.7543 27.1854 26.7543 27.1853 26.7543 27.1852C26.7543 27.1851 26.7543 27.185 26.7543 27.1849C26.7543 27.1848 26.7543 27.1847 26.7543 27.1846C26.7543 27.1845 26.7543 27.1844 26.7543 27.1842C26.7543 27.1841 26.7543 27.184 26.7543 27.1839C26.7543 27.1838 26.7543 27.1837 26.7543 27.1836C26.7543 27.1835 26.7543 27.1834 26.7543 27.1833C26.7543 27.1832 26.7543 27.183 26.7543 27.1829C26.7543 27.1828 26.7543 27.1827 26.7543 27.1826C26.7543 27.1825 26.7543 27.1824 26.7543 27.1823C26.7543 27.1822 26.7543 27.1821 26.7543 27.182C26.7543 27.1819 26.7543 27.1817 26.7543 27.1816C26.7543 27.1815 26.7543 27.1814 26.7543 27.1813C26.7543 27.1812 26.7543 27.1811 26.7543 27.181C26.7543 27.1809 26.7543 27.1808 26.7543 27.1807C26.7543 27.1805 26.7543 27.1804 26.7543 27.1803C26.7543 27.1802 26.7543 27.1801 26.7543 27.18C26.7543 27.1799 26.7543 27.1798 26.7543 27.1797C26.7543 27.1796 26.7543 27.1795 26.7543 27.1793C26.7543 27.1792 26.7543 27.1791 26.7543 27.179C26.7543 27.1789 26.7543 27.1788 26.7543 27.1787C26.7543 27.1786 26.7543 27.1785 26.7543 27.1784C26.7543 27.1783 26.7543 27.1782 26.7543 27.178C26.7543 27.1779 26.7543 27.1778 26.7543 27.1777C26.7543 27.1776 26.7543 27.1775 26.7543 27.1774C26.7543 27.1773 26.7543 27.1772 26.7543 27.1771C26.7543 27.177 26.7543 27.1768 26.7543 27.1767C26.7543 27.1766 26.7543 27.1765 26.7543 27.1764C26.7543 27.1763 26.7543 27.1762 26.7543 27.1761C26.7543 27.176 26.7543 27.1759 26.7543 27.1758C26.7543 27.1756 26.7543 27.1755 26.7543 27.1754C26.7543 27.1753 26.7543 27.1752 26.7543 27.1751C26.7543 27.175 26.7543 27.1749 26.7543 27.1748C26.7543 27.1747 26.7543 27.1746 26.7543 27.1744C26.7543 27.1743 26.7543 27.1742 26.7543 27.1741C26.7543 27.174 26.7543 27.1739 26.7543 27.1738C26.7543 27.1737 26.7543 27.1736 26.7543 27.1735C26.7543 27.1734 26.7543 27.1733 26.7543 27.1731C26.7543 27.173 26.7543 27.1729 26.7543 27.1728C26.7543 27.1727 26.7543 27.1726 26.7543 27.1725C26.7543 27.1724 26.7543 27.1723 26.7543 27.1722C26.7543 27.1721 26.7543 27.1719 26.7543 27.1718C26.7543 27.1717 26.7543 27.1716 26.7543 27.1715C26.7543 27.1714 26.7543 27.1713 26.7543 27.1712C26.7543 27.1711 26.7543 27.171 26.7543 27.1709C26.7543 27.1707 26.7543 27.1706 26.7543 27.1705C26.7543 27.1704 26.7543 27.1703 26.7543 27.1702C26.7543 27.1701 26.7543 27.17 26.7543 27.1699C26.7543 27.1698 26.7543 27.1697 26.7543 27.1696C26.7543 27.1694 26.7543 27.1693 26.7543 27.1692C26.7543 27.1691 26.7543 27.169 26.7543 27.1689C26.7543 27.1688 26.7543 27.1687 26.7543 27.1686C26.7543 27.1685 26.7543 27.1684 26.7543 27.1682C26.7543 27.1681 26.7543 27.168 26.7543 27.1679C26.7543 27.1678 26.7543 27.1677 26.7543 27.1676C26.7543 27.1675 26.7543 27.1674 26.7543 27.1673C26.7543 27.1672 26.7543 27.167 26.7543 27.1669C26.7543 27.1668 26.7543 27.1667 26.7543 27.1666C26.7543 27.1665 26.7543 27.1664 26.7543 27.1663C26.7543 27.1662 26.7543 27.1661 26.7543 27.166C26.7543 27.1659 26.7543 27.1657 26.7543 27.1656C26.7543 27.1655 26.7543 27.1654 26.7543 27.1653C26.7543 27.1652 26.7543 27.1651 26.7543 27.165C26.7543 27.1649 26.7543 27.1648 26.7543 27.1647C26.7543 27.1645 26.7543 27.1644 26.7543 27.1643C26.7543 27.1642 26.7543 27.1641 26.7543 27.164C26.7543 27.1639 26.7543 27.1638 26.7543 27.1637C26.7543 27.1636 26.7543 27.1635 26.7543 27.1633C26.7543 27.1632 26.7543 27.1631 26.7543 27.163C26.7543 27.1629 26.7543 27.1628 26.7543 27.1627C26.7543 27.1626 26.7543 27.1625 26.7543 27.1624C26.7543 27.1623 26.7543 27.1622 26.7543 27.162C26.7543 27.1619 26.7543 27.1618 26.7543 27.1617C26.7543 27.1616 26.7543 27.1615 26.7543 27.1614C26.7543 27.1613 26.7543 27.1612 26.7543 27.1611C26.7543 27.161 26.7543 27.1608 26.7543 27.1607C26.7543 27.1606 26.7543 27.1605 26.7543 27.1604C26.7543 27.1603 26.7543 27.1602 26.7543 27.1601C26.7543 27.16 26.7543 27.1599 26.7543 27.1598C26.7543 27.1596 26.7543 27.1595 26.7543 27.1594C26.7543 27.1593 26.7543 27.1592 26.7543 27.1591C26.7543 27.159 26.7543 27.1589 26.7543 27.1588C26.7543 27.1587 26.7543 27.1586 26.7543 27.1585C26.7543 27.1583 26.7543 27.1582 26.7543 27.1581C26.7543 27.158 26.7543 27.1579 26.7543 27.1578C26.7543 27.1577 26.7543 27.1576 26.7543 27.1575C26.7543 27.1574 26.7543 27.1573 26.7543 27.1571C26.7543 27.157 26.7543 27.1569 26.7543 27.1568C26.7543 27.1567 26.7543 27.1566 26.7543 27.1565C26.7543 27.1564 26.7543 27.1563 26.7543 27.1562C26.7543 27.1561 26.7543 27.1559 26.7543 27.1558C26.7543 27.1557 26.7543 27.1556 26.7543 27.1555C26.7543 27.1554 26.7543 27.1553 26.7543 27.1552C26.7543 27.1551 26.7543 27.155 26.7543 27.1549C26.7543 27.1548 26.7543 27.1546 26.7543 27.1545C26.7543 27.1544 26.7543 27.1543 26.7543 27.1542C26.7543 27.1541 26.7543 27.154 26.7543 27.1539C26.7543 27.1538 26.7543 27.1537 26.7543 27.1536C26.7543 27.1534 26.7543 27.1533 26.7543 27.1532C26.7543 27.1531 26.7543 27.153 26.7543 27.1529C26.7543 27.1528 26.7543 27.1527 26.7543 27.1526C26.7543 27.1525 26.7543 27.1524 26.7543 27.1522C26.7543 27.1521 26.7543 27.152 26.7543 27.1519C26.7543 27.1518 26.7543 27.1517 26.7543 27.1516C26.7543 27.1515 26.7543 27.1514 26.7543 27.1513C26.7543 27.1512 26.7543 27.1511 26.7543 27.1509C26.7543 27.1508 26.7543 27.1507 26.7543 27.1506C26.7543 27.1505 26.7543 27.1504 26.7543 27.1503C26.7543 27.1502 26.7543 27.1501 26.7543 27.15C26.7543 27.1499 26.7543 27.1497 26.7543 27.1496C26.7543 27.1495 26.7543 27.1494 26.7543 27.1493C26.7543 27.1492 26.7543 27.1491 26.7543 27.149C26.7543 27.1489 26.7543 27.1488 26.7543 27.1487C26.7543 27.1485 26.7543 27.1484 26.7543 27.1483C26.7543 27.1482 26.7543 27.1481 26.7543 27.148C26.7543 27.1479 26.7543 27.1478 26.7543 27.1477C26.7543 27.1476 26.7543 27.1475 26.7543 27.1474C26.7543 27.1472 26.7543 27.1471 26.7543 27.147C26.7543 27.1469 26.7543 27.1468 26.7543 27.1467C26.7543 27.1466 26.7543 27.1465 26.7543 27.1464C26.7543 27.1463 26.7543 27.1462 26.7543 27.146C26.7543 27.1459 26.7543 27.1458 26.7543 27.1457C26.7543 27.1456 26.7543 27.1455 26.7543 27.1454C26.7543 27.1453 26.7543 27.1452 26.7543 27.1451C26.7543 27.145 26.7543 27.1448 26.7543 27.1447C26.7543 27.1446 26.7543 27.1445 26.7543 27.1444C26.7543 27.1443 26.7543 27.1442 26.7543 27.1441C26.7543 27.144 26.7543 27.1439 26.7543 27.1438C26.7543 27.1436 26.7543 27.1435 26.7543 27.1434C26.7543 27.1433 26.7543 27.1432 26.7543 27.1431C26.7543 27.143 26.7543 27.1429 26.7543 27.1428C26.7543 27.1427 26.7543 27.1426 26.7543 27.1425C26.7543 27.1423 26.7543 27.1422 26.7543 27.1421C26.7543 27.142 26.7543 27.1419 26.7543 27.1418C26.7543 27.1417 26.7543 27.1416 26.7543 27.1415C26.7543 27.1414 26.7543 27.1413 26.7543 27.1411C26.7543 27.141 26.7543 27.1409 26.7543 27.1408C26.7543 27.1407 26.7543 27.1406 26.7543 27.1405C26.7543 27.1404 26.7543 27.1403 26.7543 27.1402C26.7543 27.1401 26.7543 27.1399 26.7543 27.1398C26.7543 27.1397 26.7543 27.1396 26.7543 27.1395C26.7543 27.1394 26.7543 27.1393 26.7543 27.1392C26.7543 27.1391 26.7543 27.139 26.7543 27.1389C26.7543 27.1387 26.7543 27.1386 26.7543 27.1385C26.7543 27.1384 26.7543 27.1383 26.7543 27.1382C26.7543 27.1381 26.7543 27.138 26.7543 27.1379C26.7543 27.1378 26.7543 27.1377 26.7543 27.1376C26.7543 27.1374 26.7543 27.1373 26.7543 27.1372C26.7543 27.1371 26.7543 27.137 26.7543 27.1369C26.7543 27.1368 26.7543 27.1367 26.7543 27.1366C26.7543 27.1365 26.7543 27.1364 26.7543 27.1362C26.7543 27.1361 26.7543 27.136 26.7543 27.1359C26.7543 27.1358 26.7543 27.1357 26.7543 27.1356C26.7543 27.1355 26.7543 27.1354 26.7543 27.1353C26.7543 27.1352 26.7543 27.135 26.7543 27.1349C26.7543 27.1348 26.7543 27.1347 26.7543 27.1346C26.7543 27.1345 26.7543 27.1344 26.7543 27.1343C26.7543 27.1342 26.7543 27.1341 26.7543 27.134C26.7543 27.1339 26.7543 27.1337 26.7543 27.1336C26.7543 27.1335 26.7543 27.1334 26.7543 27.1333C26.7543 27.1332 26.7543 27.1331 26.7543 27.133C26.7543 27.1329 26.7543 27.1328 26.7543 27.1327C26.7543 27.1325 26.7543 27.1324 26.7543 27.1323C26.7543 27.1322 26.7543 27.1321 26.7543 27.132C26.7543 27.1319 26.7543 27.1318 26.7543 27.1317C26.7543 27.1316 26.7543 27.1315 26.7543 27.1313C26.7543 27.1312 26.7543 27.1311 26.7543 27.131C26.7543 27.1309 26.7543 27.1308 26.7543 27.1307C26.7543 27.1306 26.7543 27.1305 26.7543 27.1304C26.7543 27.1303 26.7543 27.1301 26.7543 27.13C26.7543 27.1299 26.7543 27.1298 26.7543 27.1297C26.7543 27.1296 26.7543 27.1295 26.7543 27.1294H26.2543ZM26.2543 27.2966L25.7545 27.2834C25.7304 28.199 25.3619 29.0284 24.6051 29.7851L24.9587 30.1387L25.3122 30.4922C26.2273 29.5772 26.7225 28.5118 26.7542 27.3097L26.2543 27.2966ZM24.9587 30.1387L24.6112 29.7792C23.8865 30.4797 22.9059 30.8508 21.615 30.8508V31.3508V31.8508C23.1105 31.8508 24.359 31.4138 25.3062 30.4982L24.9587 30.1387ZM21.615 31.3508V30.8508C20.6176 30.8508 19.807 30.5967 19.1541 30.1131L18.8565 30.5149L18.5588 30.9166C19.4106 31.5476 20.439 31.8508 21.615 31.8508V31.3508ZM18.8565 30.5149L19.1541 30.1131C18.4667 29.6039 17.8855 28.9236 17.4146 28.0602L16.9756 28.2997L16.5367 28.5391C17.0689 29.5147 17.7416 30.3113 18.5588 30.9166L18.8565 30.5149ZM16.9756 28.2997L17.4175 28.0657C16.9325 27.1495 16.5119 26.12 16.1576 24.9753L15.68 25.1232L15.2023 25.271C15.5725 26.4669 16.0157 27.5551 16.5338 28.5336L16.9756 28.2997ZM15.68 25.1232L16.1616 24.9888C15.8287 23.796 15.5096 22.5752 15.2044 21.3264L14.7187 21.4451L14.233 21.5639C14.5407 22.8228 14.8625 24.054 15.1984 25.2576L15.68 25.1232ZM14.7187 21.4451L15.203 21.321C14.6437 19.1398 14.0562 17.0692 13.4402 15.1094L12.9632 15.2593L12.4862 15.4093C13.0963 17.3505 13.6791 19.4038 14.2343 21.5693L14.7187 21.4451ZM12.9632 15.2593L13.4427 15.1175C12.8461 13.1005 12.035 11.249 11.0077 9.56545L10.5809 9.82588L10.1541 10.0863C11.133 11.6907 11.9101 13.4615 12.4838 15.4012L12.9632 15.2593ZM10.5809 9.82588L10.0815 9.85085C10.1357 10.9352 10.0954 12.1352 9.95817 13.4521L10.4555 13.5039L10.9528 13.5557C11.0942 12.1977 11.1375 10.9456 11.0802 9.80091L10.5809 9.82588ZM10.4555 13.5039L9.95829 13.451C9.81926 14.7579 9.66631 16.0927 9.49943 17.4556L9.99573 17.5163L10.492 17.5771C10.6595 16.2093 10.8131 14.8692 10.9527 13.5568L10.4555 13.5039ZM9.99573 17.5163L9.49842 17.4645C9.35743 18.818 9.28675 20.131 9.28675 21.4033H9.78675H10.2867C10.2867 20.168 10.3554 18.8896 10.493 17.5681L9.99573 17.5163ZM9.78675 21.4033H9.28675C9.28675 22.5468 9.38677 23.612 9.58959 24.5971L10.0793 24.4962L10.569 24.3954C10.3818 23.4858 10.2867 22.489 10.2867 21.4033H9.78675ZM10.0793 24.4962L9.5902 24.6C9.79808 25.58 10.1714 26.4643 10.7131 27.2468L11.1242 26.9622L11.5353 26.6776C11.074 26.0112 10.7507 25.2515 10.5684 24.3925L10.0793 24.4962ZM11.1242 26.9622H10.6242C10.6242 28.2129 10.2338 29.1406 9.4934 29.8094L9.82854 30.1805L10.1637 30.5515C11.1508 29.66 11.6242 28.4422 11.6242 26.9622H11.1242ZM9.82854 30.1805L9.4934 29.8094C8.70878 30.5181 7.87742 30.8508 6.98642 30.8508V31.3508V31.8508C8.15736 31.8508 9.22074 31.4032 10.1637 30.5515L9.82854 30.1805Z" fill="#011932" mask="url(#path-1-outside-1_215_831)"/>
</svg>
