<svg width="256" height="256" viewBox="0 0 256 256" fill="none" xmlns="http://www.w3.org/2000/svg">
<path d="M72.792 221.024C66.4773 221.024 60.6747 218.464 55.384 213.344C50.264 208.224 47.704 200.117 47.704 189.024C47.704 177.931 48.728 167.264 50.776 157.024C52.9947 146.613 55.4693 136.629 58.2 127.072C61.1013 117.515 63.576 108.469 65.624 99.936C67.8427 91.232 68.952 83.04 68.952 75.36C66.392 74.336 64.0027 73.824 61.784 73.824C58.712 73.824 56.152 74.7627 54.104 76.64C52.056 78.5173 50.4347 81.0773 49.24 84.32L46.68 83.552C46.8507 71.6053 48.5573 62.1333 51.8 55.136C55.2133 47.968 59.5653 42.848 64.856 39.776C70.1467 36.704 75.608 35.168 81.24 35.168C89.7733 35.168 97.368 37.984 104.024 43.616C110.851 49.0773 116.909 56.5867 122.2 66.144C127.661 75.7013 132.355 86.5387 136.28 98.656C140.376 110.603 143.875 123.147 146.776 136.288C149.677 149.259 151.981 162.059 153.688 174.688C154.712 167.861 155.736 159.499 156.76 149.6C157.955 139.701 158.979 129.291 159.832 118.368C160.685 107.445 161.112 97.0347 161.112 87.136C161.112 79.968 160.856 73.4827 160.344 67.68C159.832 61.7067 158.979 56.5867 157.784 52.32V50.272C162.221 45.3227 166.659 41.568 171.096 39.008C175.704 36.448 179.971 35.168 183.896 35.168C189.699 35.168 194.477 37.728 198.232 42.848C202.157 47.7973 204.12 54.88 204.12 64.096C204.12 70.9227 203.181 79.2853 201.304 89.184C199.427 98.912 197.208 109.323 194.648 120.416C192.088 131.509 189.784 142.432 187.736 153.184C185.859 163.765 184.835 173.323 184.664 181.856C184.664 184.245 184.835 186.805 185.176 189.536C185.517 192.267 187.309 193.632 190.552 193.632C190.723 194.315 190.808 194.827 190.808 195.168C190.808 195.509 190.808 195.851 190.808 196.192C190.637 202.677 187.992 208.48 182.872 213.6C177.752 218.549 170.925 221.024 162.392 221.024C155.736 221.024 150.104 219.317 145.496 215.904C140.888 212.491 137.048 207.968 133.976 202.336C130.904 196.533 128.259 190.048 126.04 182.88C123.992 175.541 122.029 168.032 120.152 160.352C116.739 147.04 113.155 134.411 109.4 122.464C105.816 110.347 100.952 99.2533 94.808 89.184C95.1493 96.0107 94.8933 103.52 94.04 111.712C93.1867 119.733 92.248 127.925 91.224 136.288C90.3707 144.48 89.944 152.416 89.944 160.096C89.944 166.923 90.5413 173.237 91.736 179.04C92.9307 184.672 95.064 189.707 98.136 194.144C98.136 202.507 95.4907 209.077 90.2 213.856C84.9093 218.635 79.1067 221.024 72.792 221.024Z" fill="#E6F5FF"/>
</svg>
